<svg width="601" height="600" viewBox="0 0 601 600" fill="none" xmlns="http://www.w3.org/2000/svg">
<path fill-rule="evenodd" clip-rule="evenodd" d="M157.055 54.5452L313.635 54.5452C328.697 54.5452 340.908 66.7556 340.908 81.8178C340.908 96.8801 328.697 109.09 313.635 109.09H158.181C134.82 109.09 118.939 109.112 106.664 110.115C94.7075 111.091 88.5929 112.862 84.3274 115.035C74.0641 120.265 65.7197 128.609 60.4903 138.873C58.317 143.138 56.5463 149.253 55.5694 161.209C54.5664 173.485 54.5452 189.365 54.5452 212.726V441.816C54.5452 465.177 54.5664 481.058 55.5694 493.333C56.5463 505.29 58.317 511.404 60.4903 515.67C65.7197 525.933 74.0641 534.278 84.3275 539.507C88.5929 541.68 94.7075 543.451 106.664 544.428C118.939 545.431 134.82 545.452 158.181 545.452H394.252C414.262 545.452 427.862 545.436 438.425 544.695C448.732 543.971 454.079 542.654 457.815 541.056C462.061 539.24 466.023 536.908 469.625 534.137C473.535 531.127 477.021 527.599 479.985 523.652C482.289 520.583 484.276 517.26 485.903 513.729C486.109 512.557 486.365 510.721 486.641 508.111C487.197 502.846 487.708 495.669 488.162 486.902C489.065 469.438 489.676 446.931 490.087 423.414C490.906 376.446 490.907 326.451 490.907 306.817C490.907 291.755 503.117 279.544 518.18 279.544C533.242 279.544 545.452 291.755 545.452 306.817V306.854C545.452 326.495 545.452 376.894 544.624 424.366C544.444 434.687 544.224 444.917 543.954 454.698C544.925 457.498 545.452 460.504 545.452 463.634C545.452 464.904 545.453 466.154 545.453 467.387C545.465 489.079 545.474 505.188 541.735 519.142C537.322 535.612 529.211 550.505 518.33 562.892C514.471 567.286 510.263 571.365 505.748 575.088C493.897 584.858 479.93 592.171 464.596 596.28C450.642 600.019 434.533 600.01 412.841 599.999C411.609 599.998 410.358 599.997 409.089 599.997H396.868C396.319 599.997 395.767 599.997 395.213 599.997H157.057C156.399 599.997 155.744 599.997 155.093 599.997H138.253C137.741 599.997 137.233 599.983 136.728 599.955C123.609 599.869 112.155 599.604 102.222 598.792C86.8926 597.54 72.8008 594.851 59.5644 588.107C39.0378 577.648 22.349 560.96 11.8902 540.433C5.1459 527.197 2.4578 513.105 1.2053 497.775C-0.000622188 483.015 -0.00033611 464.896 1.17624e-05 442.943V211.6C-0.00033611 189.646 -0.000622188 171.527 1.2053 156.768C2.4578 141.438 5.14591 127.346 11.8902 114.11C22.349 93.5829 39.0378 76.8942 59.5644 66.4354C72.8008 59.6911 86.8926 57.003 102.222 55.7505C116.982 54.5446 135.101 54.5448 157.055 54.5452Z" fill="black"/>
<path fill-rule="evenodd" clip-rule="evenodd" d="M331.709 61.485C342.938 71.4668 343.95 88.6619 333.968 99.8914L233.67 212.726L367.881 288.22C375.055 292.255 380.016 299.321 381.375 307.438C382.734 315.556 380.345 323.852 374.877 330.004L252.15 468.072C242.168 479.301 224.973 480.313 213.744 470.331C202.514 460.349 201.503 443.154 211.484 431.924L311.782 319.09L177.571 243.596C170.397 239.561 165.436 232.495 164.077 224.377C162.718 216.26 165.107 207.963 170.575 201.812L293.302 63.7442C303.284 52.5147 320.479 51.5032 331.709 61.485Z" fill="black"/>
<path d="M497.845 204.664C521.521 204.65 544.459 196.427 562.751 181.397C581.044 166.366 593.558 145.458 598.163 122.234C602.768 99.011 599.177 74.9094 588.004 54.0364C576.83 33.1634 558.764 16.8107 536.885 7.76447C515.006 -1.28173 490.667 -2.46159 468.015 4.42592C445.364 11.3134 425.801 25.8421 412.661 45.5364C399.521 65.2308 393.616 88.8721 395.953 112.432C398.289 135.992 408.723 158.013 425.476 174.742C434.977 184.246 446.26 191.781 458.678 196.915C471.097 202.05 484.407 204.683 497.845 204.664ZM541.275 145.803C532.287 154.712 520.766 160.627 508.287 162.737C495.809 164.847 482.984 163.05 471.566 157.591L553.104 76.0532C558.558 87.4749 560.348 100.303 558.231 112.781C556.113 125.26 550.191 136.779 541.275 145.762V145.803ZM454.415 58.9023C463.398 49.9861 474.918 44.064 487.396 41.9464C499.874 39.8288 512.702 41.6193 524.124 47.0728L442.586 128.611C437.132 117.189 435.342 104.361 437.459 91.8829C439.577 79.4045 445.499 67.8855 454.415 58.9023Z" fill="black"/>
</svg>
