<svg width="600" height="600" viewBox="0 0 600 600" fill="currentColor" xmlns="http://www.w3.org/2000/svg">
<path fill-rule="evenodd" clip-rule="evenodd" d="M266.667 66.6667C156.21 66.6667 66.6667 156.21 66.6667 266.667C66.6667 377.124 156.21 466.667 266.667 466.667C377.124 466.667 466.667 377.124 466.667 266.667C466.667 156.21 377.124 66.6667 266.667 66.6667ZM0 266.667C0 119.391 119.391 0 266.667 0C413.943 0 533.333 119.391 533.333 266.667C533.333 330.121 511.17 388.4 474.162 434.183C480.053 435.536 485.648 438.507 490.237 443.096L590.237 543.096C603.254 556.114 603.254 577.219 590.237 590.237C577.219 603.254 556.114 603.254 543.096 590.237L443.096 490.237C438.507 485.648 435.536 480.053 434.183 474.162C388.4 511.17 330.121 533.333 266.667 533.333C119.391 533.333 0 413.943 0 266.667Z" fill="currentColor"/>
</svg>
