<svg version="1.2" fill="currentColor" xmlns="http://www.w3.org/2000/svg" viewBox="0 0 600 600" width="600" height="600">
	<path id="Layer" fill-rule="evenodd" fill="currentColor" class="s0" d="m299.3 594.6c-162.4 0-293.7-131.3-293.7-293.7 0-162.4 131.3-293.7 293.7-293.7 162.4 0 293.7 131.3 293.7 293.7 0 162.4-131.3 293.7-293.7 293.7zm244.8-293.7c0-135.4-109.4-244.8-244.8-244.8-135.3 0-244.7 109.4-244.7 244.8 0 135.3 109.4 244.7 244.7 244.7 135.4 0 244.8-109.4 244.8-244.7zm-240.2-198.9l10.7 198.1 124.7 132.3-23.7 24.5-150.7-133.1-2.3-21.4 10.7-200.4z"/>
</svg>