<svg width="134" height="600" viewBox="0 0 134 600" fill="currentColor" xmlns="http://www.w3.org/2000/svg">
<path fill-rule="evenodd" clip-rule="evenodd" d="M0 66.6667C0 29.8477 29.8477 0 66.6667 0C103.486 0 133.333 29.8477 133.333 66.6667C133.333 103.486 103.486 133.333 66.6667 133.333C29.8477 133.333 0 103.486 0 66.6667ZM0 300C0 263.181 29.8477 233.333 66.6667 233.333C103.486 233.333 133.333 263.181 133.333 300C133.333 336.819 103.486 366.667 66.6667 366.667C29.8477 366.667 0 336.819 0 300ZM0 533.333C0 496.514 29.8477 466.667 66.6667 466.667C103.486 466.667 133.333 496.514 133.333 533.333C133.333 570.152 103.486 600 66.6667 600C29.8477 600 0 570.152 0 533.333Z" fill="currentColor"/>
</svg>
